<svg width="100" height="100" viewBox="0 0 100 100" fill="none" xmlns="http://www.w3.org/2000/svg">
<path d="M70.8333 45.8333V12.4999H29.1667V29.1666H12.5V87.4999H45.8333V70.8333H54.1666V87.4999H87.5V45.8333H70.8333ZM29.1667 79.1666H20.8333V70.8333H29.1667V79.1666ZM29.1667 62.4999H20.8333V54.1666H29.1667V62.4999ZM29.1667 45.8333H20.8333V37.4999H29.1667V45.8333ZM45.8333 62.4999H37.5V54.1666H45.8333V62.4999ZM45.8333 45.8333H37.5V37.4999H45.8333V45.8333ZM45.8333 29.1666H37.5V20.8333H45.8333V29.1666ZM62.5 62.4999H54.1666V54.1666H62.5V62.4999ZM62.5 45.8333H54.1666V37.4999H62.5V45.8333ZM62.5 29.1666H54.1666V20.8333H62.5V29.1666ZM79.1666 79.1666H70.8333V70.8333H79.1666V79.1666ZM79.1666 62.4999H70.8333V54.1666H79.1666V62.4999Z" fill="white"/>
</svg>
