<svg width="100" height="100" viewBox="0 0 100 100" fill="none" xmlns="http://www.w3.org/2000/svg">
<path d="M37.5 46.8334V31.25C37.5 25.5 42.1667 20.8334 47.9167 20.8334C53.6667 20.8334 58.3333 25.5 58.3333 31.25V46.8334C63.375 43.4584 66.6667 37.75 66.6667 31.25C66.6667 20.875 58.2917 12.5 47.9167 12.5C37.5417 12.5 29.1667 20.875 29.1667 31.25C29.1667 37.75 32.4583 43.4584 37.5 46.8334ZM78.5 66.125L59.5833 56.7084C58.875 56.4167 58.125 56.25 57.3333 56.25H54.1667V31.25C54.1667 27.7917 51.375 25 47.9167 25C44.4583 25 41.6667 27.7917 41.6667 31.25V76C26.6667 72.8334 26.9167 72.875 26.375 72.875C25.0833 72.875 23.9167 73.4167 23.0833 74.25L19.7917 77.5834L40.375 98.1667C41.5 99.2917 43.0833 100 44.7917 100H73.0833C76.2083 100 78.625 97.7084 79.0833 94.6667L82.2083 72.7084C82.25 72.4167 82.2917 72.125 82.2917 71.875C82.2917 69.2917 80.7083 67.0417 78.5 66.125V66.125Z" fill="white"/>
</svg>
