<svg width="40" height="40" viewBox="0 0 40 40" fill="none" xmlns="http://www.w3.org/2000/svg">
<path d="M37.2 0.480011H22.08C20.892 0.480011 19.92 1.45201 19.92 2.64001V22.08L26.4 15.6H37.2C38.388 15.6 39.36 14.628 39.36 13.44V2.64001C39.36 1.45201 38.388 0.480011 37.2 0.480011ZM35.5368 26.9616L30.0504 26.3352C28.7328 26.184 27.4368 26.6376 26.508 27.5664L22.5336 31.5408C16.4208 28.4304 11.4096 23.4408 8.2992 17.3064L12.2952 13.3104C13.224 12.3816 13.6776 11.0856 13.5264 9.76801L12.9 4.32481C12.6408 2.14321 10.8048 0.501611 8.6016 0.501611H4.8648C2.424 0.501611 0.393596 2.53201 0.544796 4.97281C1.6896 23.4192 16.4424 38.1504 34.8672 39.2952C37.308 39.4464 39.3384 37.416 39.3384 34.9752V31.2384C39.36 29.0568 37.7184 27.2208 35.5368 26.9616V26.9616Z" fill="white"/>
</svg>
