<svg width="100" height="100" viewBox="0 0 100 100" fill="none" xmlns="http://www.w3.org/2000/svg">
<path d="M80 20H52.5C51.1 20 50 21.1 50 22.5C50 23.9 51.1 25 52.5 25H80V75H52.5C51.1 75 50 76.1 50 77.5C50 78.9 51.1 80 52.5 80H80C82.75 80 85 77.75 85 75V25C85 22.25 82.75 20 80 20Z" fill="white"/>
<path d="M45.75 34.2499C44.75 35.2499 44.75 36.7999 45.75 37.7999L55.45 47.4999H17.5C16.1 47.4999 15 48.5999 15 49.9999C15 51.3999 16.1 52.4999 17.5 52.4999H55.45L45.75 62.1999C44.75 63.1999 44.75 64.7499 45.75 65.7499C46.75 66.7499 48.3 66.7499 49.3 65.7499L63.25 51.7999C64.25 50.7999 64.25 49.2499 63.25 48.2499L49.25 34.2499C48.3 33.2999 46.7 33.2999 45.75 34.2499V34.2499Z" fill="white"/>
</svg>
