<svg width="100" height="100" viewBox="0 0 100 100" fill="none" xmlns="http://www.w3.org/2000/svg">
<path d="M41.6667 16.6667H58.3333V33.3333H41.6667V16.6667Z" fill="white"/>
<path d="M16.6667 66.6667H33.3333V83.3333H16.6667V66.6667Z" fill="white"/>
<path d="M16.6667 41.6667H33.3333V58.3333H16.6667V41.6667Z" fill="white"/>
<path d="M16.6667 16.6667H33.3333V33.3333H16.6667V16.6667Z" fill="white"/>
<path d="M58.3333 51.75V41.6667H41.6667V58.3333H51.75L58.3333 51.75Z" fill="white"/>
<path d="M87 47.0417L82.125 42.1667C81.4584 41.5 80.375 41.5 79.7084 42.1667L76.0417 45.8333L83.3334 53.125L87 49.4583C87.6667 48.7917 87.6667 47.7083 87 47.0417Z" fill="white"/>
<path d="M45.8333 76.0417V83.3334H53.125L80.9166 55.5417L73.625 48.25L45.8333 76.0417Z" fill="white"/>
<path d="M66.6667 16.6667H83.3334V33.3333H66.6667V16.6667Z" fill="white"/>
</svg>
